<?xml version="1.0" standalone="no"?>
<!DOCTYPE svg PUBLIC "-//W3C//DTD SVG 20010904//EN"
 "http://www.w3.org/TR/2001/REC-SVG-20010904/DTD/svg10.dtd">
<svg version="1.0" xmlns="http://www.w3.org/2000/svg"
 width="1600.000000pt" height="1458.000000pt" viewBox="0 0 1600.000000 1458.000000"
 preserveAspectRatio="xMidYMid meet">

<g transform="translate(0.000000,1458.000000) scale(0.100000,-0.100000)"
fill="#000000" stroke="none">
<path d="M3530 14096 l0 -63 238 -6 c321 -7 443 -30 627 -118 81 -38 179 -116
241 -191 76 -90 135 -255 154 -430 7 -66 10 -1290 10 -3798 l0 -3700 780 0
780 0 0 3648 c0 2248 4 3695 10 3772 22 281 83 444 215 575 178 177 419 245
861 245 l174 0 0 65 0 65 -2045 0 -2045 0 0 -64z"/>
<path d="M9870 10129 c-1251 -77 -2154 -642 -2489 -1556 -109 -298 -154 -581
-154 -973 0 -219 8 -324 40 -520 75 -469 264 -846 620 -1238 l48 -52 1443 2
1443 3 -238 109 c-339 155 -756 366 -983 497 -322 185 -485 304 -658 482 -109
111 -152 163 -229 277 -181 269 -273 634 -273 1080 0 586 150 1030 441 1306
248 234 556 379 917 428 130 18 421 21 539 6 609 -81 974 -426 1152 -1086 79
-296 115 -564 130 -962 5 -128 10 -235 12 -236 11 -10 300 17 399 38 129 26
293 87 389 143 214 127 361 328 407 558 49 246 -24 555 -184 780 -184 260
-518 507 -888 659 -507 208 -1178 298 -1884 255z"/>
<path d="M1395 4608 c-115 -281 -213 -519 -217 -530 -7 -17 -3 -19 48 -16 l56
3 52 130 52 130 223 0 223 0 52 -132 51 -133 52 0 c29 0 53 4 53 8 0 12 -420
1035 -428 1044 -4 4 -101 -223 -217 -504z m308 42 l85 -215 -175 -3 c-97 -1
-177 -1 -179 1 -2 2 36 103 84 225 48 122 90 218 94 214 4 -4 45 -104 91 -222z"/>
<path d="M3945 4608 c-115 -281 -213 -519 -217 -530 -7 -17 -3 -19 48 -16 l56
3 52 130 52 130 223 0 223 0 52 -132 51 -133 52 0 c29 0 53 4 53 8 0 12 -420
1035 -428 1044 -4 4 -101 -223 -217 -504z m308 42 l85 -215 -175 -3 c-97 -1
-177 -1 -179 1 -2 2 36 103 84 225 48 122 90 218 94 214 4 -4 45 -104 91 -222z"/>
<path d="M5120 4587 l0 -527 50 0 50 0 2 367 3 367 225 -319 c123 -176 248
-353 277 -394 l53 -74 0 527 0 526 -50 0 -50 0 0 -362 c0 -310 -2 -360 -14
-348 -8 8 -127 177 -266 375 -139 198 -259 367 -266 375 -12 12 -14 -66 -14
-513z"/>
<path d="M2727 5046 c-75 -31 -101 -49 -130 -88 -34 -46 -47 -91 -47 -160 0
-138 77 -203 323 -272 156 -44 240 -85 267 -129 26 -43 27 -121 1 -164 -44
-71 -173 -111 -303 -93 -108 16 -170 57 -192 128 -7 20 -14 22 -67 22 -32 0
-59 -2 -59 -4 0 -22 37 -98 64 -130 132 -162 520 -150 636 19 87 127 53 295
-75 366 -27 15 -120 49 -205 74 -85 26 -171 55 -191 66 -129 66 -130 218 -2
280 62 30 185 33 255 6 44 -17 108 -75 108 -97 0 -6 25 -10 56 -10 53 0 55 1
49 23 -20 65 -77 126 -150 158 -40 18 -73 23 -165 26 -104 3 -121 1 -173 -21z"/>
<path d="M7373 5056 c-95 -30 -163 -95 -188 -178 -27 -94 -14 -158 47 -224 51
-55 130 -93 268 -129 126 -32 221 -74 255 -111 74 -80 23 -220 -97 -260 -60
-20 -174 -22 -244 -5 -62 15 -119 59 -135 106 -13 34 -14 35 -71 35 -67 0 -68
-3 -34 -75 56 -122 206 -186 396 -172 101 8 178 38 238 92 61 55 84 108 84
195 1 153 -81 220 -359 295 -189 51 -253 100 -253 195 0 63 31 108 95 140 42
20 64 24 136 24 106 -1 170 -28 208 -86 23 -36 27 -38 78 -38 l53 0 -15 37
c-50 120 -153 174 -329 172 -50 0 -110 -6 -133 -13z"/>
<path d="M13240 5056 c-80 -21 -144 -59 -211 -126 -241 -238 -201 -626 83
-811 83 -53 164 -72 286 -67 91 3 106 7 178 43 92 45 184 131 227 213 l28 52
-60 0 c-34 0 -61 -4 -61 -9 0 -17 -91 -109 -138 -140 -281 -180 -650 76 -594
413 35 215 242 373 442 338 115 -21 236 -97 276 -174 13 -25 19 -28 69 -28 68
0 69 7 15 88 -97 144 -243 223 -414 221 -44 0 -101 -6 -126 -13z"/>
<path d="M550 4560 l0 -500 50 0 50 0 0 500 0 500 -50 0 -50 0 0 -500z"/>
<path d="M8440 4560 l0 -500 300 0 300 0 0 45 0 45 -245 0 -245 0 0 180 0 180
235 0 235 0 0 50 0 50 -235 0 -235 0 0 180 0 180 245 0 245 0 0 45 0 45 -300
0 -300 0 0 -500z"/>
<path d="M9660 4561 l0 -501 50 0 50 0 2 198 3 197 39 3 c22 2 49 1 60 -2 14
-3 78 -81 166 -201 l145 -195 68 0 69 0 -30 38 c-143 183 -272 352 -272 355 0
3 19 8 43 11 89 14 185 91 224 183 24 58 22 167 -6 228 -29 65 -91 128 -155
157 -47 21 -67 23 -253 26 l-203 3 0 -500z m417 384 c76 -32 113 -92 113 -182
-1 -104 -53 -177 -145 -202 -22 -6 -95 -11 -162 -11 l-123 0 0 205 0 205 140
0 c104 0 150 -4 177 -15z"/>
<path d="M10773 5028 c111 -265 431 -1005 437 -1011 6 -7 450 1014 450 1036 0
4 -24 7 -52 7 l-53 0 -169 -400 c-93 -220 -171 -398 -174 -395 -3 3 -80 182
-172 398 l-167 392 -57 3 -57 3 14 -33z"/>
<path d="M12190 4560 l0 -500 50 0 50 0 0 500 0 500 -50 0 -50 0 0 -500z"/>
<path d="M14380 4560 l0 -500 300 0 300 0 0 45 0 45 -245 0 -245 0 0 180 0
180 235 0 235 0 0 50 0 50 -235 0 -235 0 0 180 0 180 245 0 245 0 0 45 0 45
-300 0 -300 0 0 -500z"/>
<path d="M11750 3272 c0 -4 7 -17 15 -29 26 -38 85 -200 116 -321 110 -434 79
-1026 -75 -1412 -71 -181 -137 -295 -243 -422 -171 -206 -424 -389 -673 -489
-302 -120 -715 -174 -1076 -138 -620 60 -1080 372 -1342 911 -186 381 -299
929 -318 1543 -2 94 -7 194 -10 223 l-5 52 -65 0 c-200 0 -454 -71 -616 -173
-260 -163 -390 -390 -416 -730 -34 -428 118 -833 438 -1170 377 -396 873 -634
1540 -736 459 -71 1071 -81 1555 -25 601 69 1134 246 1525 507 645 431 1027
1073 1099 1847 11 116 16 321 13 473 l-2 97 -730 0 c-401 0 -730 -3 -730 -8z"/>
</g>
</svg>
