<?xml version="1.0" standalone="no"?>
<!DOCTYPE svg PUBLIC "-//W3C//DTD SVG 20010904//EN"
 "http://www.w3.org/TR/2001/REC-SVG-20010904/DTD/svg10.dtd">
<svg version="1.0" xmlns="http://www.w3.org/2000/svg"
 width="2538.000000pt" height="349.000000pt" viewBox="0 0 2538.000000 349.000000"
 preserveAspectRatio="xMidYMid meet">

<g transform="translate(0.000000,349.000000) scale(0.100000,-0.100000)"
fill="#000000" stroke="none">
<path d="M2688 2677 c-18 -44 -146 -355 -472 -1149 -108 -262 -196 -479 -196
-482 0 -3 40 -6 88 -6 l89 0 84 213 85 212 347 0 348 0 83 -210 83 -210 86 -3
c69 -2 87 0 87 11 0 8 -33 95 -74 193 -41 98 -104 253 -141 344 -87 214 -122
300 -180 440 -26 63 -58 140 -70 170 -12 30 -48 118 -80 195 -32 77 -74 180
-94 229 -20 49 -41 91 -46 93 -6 1 -18 -16 -27 -40z m127 -587 c48 -124 107
-274 131 -335 24 -60 44 -115 44 -122 0 -10 -57 -13 -274 -13 -151 0 -277 3
-279 8 -4 6 216 578 259 671 8 19 19 30 23 25 4 -5 48 -110 96 -234z"/>
<path d="M6718 2677 c-9 -23 -75 -184 -146 -357 -72 -173 -218 -530 -326 -792
-108 -262 -196 -479 -196 -482 0 -3 40 -6 89 -6 l88 0 85 213 84 212 348 0
348 0 74 -190 c41 -104 79 -200 84 -212 9 -21 16 -23 95 -23 65 0 85 3 85 14
0 7 -14 46 -31 87 -17 41 -64 157 -106 259 -41 102 -90 221 -108 265 -18 44
-65 159 -105 255 -39 96 -86 211 -105 255 -18 44 -66 163 -108 265 -102 251
-115 280 -124 280 -4 0 -16 -19 -25 -43z m92 -497 c29 -74 88 -225 131 -334
44 -109 79 -205 79 -213 0 -10 -51 -13 -274 -13 -151 0 -277 3 -280 8 -2 4 4
28 14 52 11 25 72 178 136 340 64 162 118 299 121 303 9 15 18 -4 73 -143z"/>
<path d="M8260 1875 l0 -836 83 3 82 3 3 568 c1 312 6 567 10 567 4 0 77 -100
163 -223 479 -683 702 -997 710 -997 5 0 9 359 9 830 l0 830 -85 0 -85 0 -2
-572 -3 -571 -235 334 c-533 760 -632 899 -642 899 -4 0 -8 -376 -8 -835z"/>
<path d="M4566 2634 c-84 -19 -180 -63 -245 -114 -37 -29 -59 -59 -87 -114
-32 -67 -37 -86 -41 -168 -7 -125 17 -189 97 -269 88 -88 171 -125 460 -204
180 -49 329 -120 370 -177 44 -60 54 -109 40 -182 -14 -77 -51 -130 -116 -172
-81 -52 -151 -68 -294 -68 -101 0 -139 4 -196 22 -92 28 -162 88 -195 167
l-23 55 -97 0 -97 0 14 -45 c68 -226 245 -340 550 -352 163 -7 264 11 381 68
143 68 220 168 245 316 9 55 9 89 1 138 -32 188 -155 285 -473 375 -261 74
-284 81 -343 112 -145 78 -194 201 -129 329 51 101 164 153 332 152 192 -1
312 -59 352 -169 l12 -35 86 3 c84 3 85 3 82 28 -4 43 -52 126 -100 174 -117
119 -372 175 -586 130z"/>
<path d="M11890 2635 c-260 -59 -389 -211 -378 -444 5 -104 35 -169 112 -238
86 -77 161 -108 476 -198 168 -48 301 -113 340 -167 43 -58 54 -110 41 -177
-23 -114 -97 -188 -227 -227 -81 -25 -284 -25 -369 0 -109 32 -182 94 -211
179 l-16 47 -98 0 -99 0 13 -42 c42 -136 128 -237 248 -292 189 -86 482 -89
665 -6 181 82 267 210 268 400 0 115 -22 174 -91 249 -85 92 -185 137 -489
221 -237 65 -325 113 -369 202 -28 57 -33 116 -15 179 39 128 219 204 424 179
102 -13 140 -26 200 -68 33 -23 53 -47 68 -82 l22 -50 85 2 c84 3 85 3 82 28
-8 75 -105 197 -195 246 -115 62 -348 91 -487 59z"/>
<path d="M21194 2640 c-192 -27 -390 -145 -510 -303 -194 -256 -224 -609 -77
-892 45 -87 135 -197 212 -257 151 -120 303 -173 496 -171 274 3 520 147 669
392 20 32 39 73 42 90 l7 31 -87 0 -86 0 -26 -42 c-70 -112 -163 -192 -287
-248 -89 -40 -171 -54 -285 -47 -165 9 -282 66 -409 200 -299 315 -196 838
200 1026 171 81 349 75 536 -16 83 -41 202 -150 241 -220 l24 -43 88 0 c53 0
88 4 88 10 0 24 -72 150 -115 204 -99 121 -256 224 -403 265 -85 23 -232 33
-318 21z"/>
<path d="M1030 1833 l0 -793 80 0 80 0 0 789 0 789 -80 4 -80 3 0 -792z"/>
<path d="M13520 1833 l0 -793 470 0 471 0 -3 78 -3 77 -388 3 -387 2 2 273 3
272 375 5 375 5 0 75 0 75 -375 5 -375 5 0 275 0 275 388 3 387 2 0 75 0 75
-470 2 -470 3 0 -792z"/>
<path d="M15437 2623 c-1 -1 -1 -357 1 -792 l2 -791 80 0 80 0 2 313 3 312 85
3 c47 1 90 -1 95 -5 10 -7 130 -168 369 -490 l98 -133 109 0 c60 0 109 2 109
5 0 2 -106 141 -235 307 -129 167 -235 306 -235 310 0 5 10 8 23 8 36 0 144
36 193 65 245 143 308 484 131 709 -42 52 -135 120 -205 148 -54 22 -73 23
-380 28 -178 3 -324 4 -325 3z m671 -188 c67 -30 108 -69 144 -138 20 -36 23
-57 23 -147 -1 -123 -16 -163 -94 -239 -79 -77 -119 -86 -366 -86 l-210 0 -3
310 c-1 170 0 316 3 324 4 11 44 13 223 9 213 -4 218 -5 280 -33z"/>
<path d="M17185 2620 c-1 -3 32 -86 75 -185 42 -99 164 -382 270 -630 366
-855 366 -856 377 -843 5 7 146 333 312 723 167 391 325 760 351 820 26 61 47
111 46 112 -1 1 -41 3 -91 4 -79 2 -90 0 -97 -17 -4 -10 -64 -154 -134 -319
-69 -165 -145 -345 -169 -400 -167 -397 -218 -515 -224 -515 -4 0 -96 210
-206 468 -109 257 -228 537 -265 622 l-66 155 -88 5 c-48 3 -89 3 -91 0z"/>
<path d="M19440 1830 l0 -791 83 3 82 3 3 788 2 787 -85 0 -85 0 0 -790z"/>
<path d="M22910 1830 l0 -790 469 0 c418 0 470 2 475 16 11 28 6 120 -6 132
-9 9 -110 12 -395 12 l-383 0 2 273 3 272 375 5 375 5 3 77 3 78 -378 2 -378
3 0 275 0 275 384 3 c293 2 387 5 393 15 9 14 11 99 2 121 -5 14 -57 16 -475
16 l-469 0 0 -790z"/>
</g>
</svg>
