<?xml version="1.0" standalone="no"?>
<!DOCTYPE svg PUBLIC "-//W3C//DTD SVG 20010904//EN"
 "http://www.w3.org/TR/2001/REC-SVG-20010904/DTD/svg10.dtd">
<svg version="1.0" xmlns="http://www.w3.org/2000/svg"
 width="748.000000pt" height="745.000000pt" viewBox="0 0 748.000000 745.000000"
 preserveAspectRatio="xMidYMid meet">

<g transform="translate(0.000000,745.000000) scale(0.100000,-0.100000)"
fill="#000000" stroke="none">
<path d="M2608 5739 c-65 -15 -151 -65 -199 -116 -56 -59 -75 -89 -102 -161
-21 -55 -21 -74 -25 -669 l-3 -613 -250 0 -249 0 0 -870 0 -870 250 0 250 0 0
-125 0 -125 -321 0 -321 0 4 -162 c3 -155 5 -166 31 -216 54 -103 150 -172
268 -192 45 -8 492 -10 1499 -8 1559 4 1458 0 1566 56 83 43 162 145 194 250
19 62 20 96 20 867 l0 803 103 6 c56 3 222 9 370 12 l267 6 0 917 0 916 -29
60 c-36 77 -105 153 -169 188 -111 60 -13 57 -1632 56 -820 -1 -1502 -5 -1522
-10z m2629 -124 c-42 -41 -77 -99 -104 -170 -17 -48 -18 -131 -23 -1775 l-5
-1725 -25 -49 c-29 -57 -90 -120 -140 -146 -122 -62 -285 -37 -378 59 -65 67
-87 123 -87 221 0 47 3 100 7 118 l7 32 -1049 0 -1050 0 0 125 0 125 395 0
395 0 0 870 0 870 -395 0 -395 0 2 623 3 622 25 49 c29 57 85 118 132 142 78
42 90 42 1432 43 l1289 1 -36 -35z m448 3 c91 -48 156 -134 174 -232 7 -40 11
-329 11 -867 l0 -807 -112 -6 c-62 -3 -209 -7 -325 -10 l-213 -4 0 849 c0 836
0 849 21 904 28 75 106 154 179 183 77 31 194 26 265 -10z m-2615 -2313 l0
-765 -595 0 -595 0 0 765 0 765 595 0 595 0 0 -765z m1290 -1277 c0 -97 35
-191 104 -281 l36 -47 -1243 0 c-845 0 -1262 3 -1303 11 -148 27 -234 139
-234 306 l0 63 1320 0 1320 0 0 -52z"/>
<path d="M3860 5369 c-140 -36 -280 -117 -368 -213 -58 -63 -137 -185 -161
-250 -132 -352 13 -752 339 -939 25 -14 86 -40 135 -58 85 -30 98 -32 230 -33
120 -1 151 2 215 22 156 49 292 140 388 258 61 76 133 222 153 309 18 75 18
252 0 325 -70 295 -298 524 -586 586 -91 20 -256 17 -345 -7z m257 -79 c166
-23 283 -80 395 -193 161 -162 231 -395 182 -604 -71 -308 -341 -524 -654
-523 -352 2 -635 276 -657 635 -17 280 166 551 441 652 33 12 112 28 208 42 4
1 42 -4 85 -9z"/>
<path d="M3997 5163 c-4 -3 -7 -34 -7 -68 l0 -61 -55 -23 c-121 -50 -176 -176
-126 -286 30 -68 128 -134 197 -135 136 -1 221 -99 167 -191 -20 -34 -86 -69
-129 -69 -53 0 -117 40 -139 88 -18 40 -22 42 -61 42 -50 0 -56 -10 -36 -68
18 -55 72 -108 140 -138 l52 -24 0 -65 0 -65 50 0 50 0 0 68 0 69 41 12 c49
15 114 71 140 122 25 50 25 121 -2 176 -36 73 -132 133 -218 133 -81 1 -161
65 -161 131 0 67 98 139 171 125 55 -10 99 -43 116 -86 15 -38 18 -40 59 -40
24 0 45 4 48 8 11 18 -17 85 -52 124 -20 22 -61 52 -92 67 l-55 26 -3 68 -3
67 -43 0 c-23 0 -46 -3 -49 -7z"/>
<path d="M3922 3353 l3 -48 442 -3 443 -2 6 24 c3 13 4 35 2 47 l-3 24 -448 3
-448 2 3 -47z"/>
<path d="M3674 3026 c-3 -8 -4 -29 -2 -48 l3 -33 573 -3 573 -2 -3 47 -3 48
-568 3 c-481 2 -568 0 -573 -12z"/>
<path d="M3432 2623 l3 -48 693 -3 692 -2 0 50 0 50 -696 0 -695 0 3 -47z"/>
<path d="M1960 3760 l0 -210 520 0 520 0 0 210 0 210 -520 0 -520 0 0 -210z
m940 0 l0 -110 -420 0 -420 0 0 110 0 110 420 0 420 0 0 -110z"/>
<path d="M2224 3350 c-111 -55 -111 -216 1 -270 104 -50 218 25 217 142 -1 55
-30 99 -82 126 -55 27 -83 28 -136 2z m106 -100 c27 -27 25 -56 -4 -75 -18
-12 -30 -13 -50 -6 -34 14 -37 62 -4 85 29 20 34 20 58 -4z"/>
<path d="M2445 3070 l-239 -240 34 -35 34 -35 243 242 243 242 -32 33 c-18 18
-34 33 -38 33 -3 0 -113 -108 -245 -240z"/>
<path d="M2590 2981 c-42 -22 -80 -84 -80 -131 0 -48 38 -111 80 -133 44 -23
126 -19 162 9 86 63 80 190 -12 251 -41 28 -102 30 -150 4z m108 -93 c7 -7 12
-24 12 -38 0 -48 -45 -67 -82 -33 -22 20 -23 32 -2 61 17 24 53 29 72 10z"/>
</g>
</svg>
