<?xml version="1.0" standalone="no"?>
<!DOCTYPE svg PUBLIC "-//W3C//DTD SVG 20010904//EN"
 "http://www.w3.org/TR/2001/REC-SVG-20010904/DTD/svg10.dtd">
<svg version="1.0" xmlns="http://www.w3.org/2000/svg"
 width="807.000000pt" height="772.000000pt" viewBox="0 0 807.000000 772.000000"
 preserveAspectRatio="xMidYMid meet">

<g transform="translate(0.000000,772.000000) scale(0.100000,-0.100000)"
fill="#000000" stroke="none">
<path d="M3832 5628 l-212 -141 -265 13 c-243 11 -267 11 -290 -4 -17 -11 -63
-92 -140 -246 l-115 -230 -230 -115 c-154 -77 -235 -123 -246 -140 -15 -23
-15 -47 -4 -290 l13 -265 -141 -213 c-107 -159 -142 -220 -142 -244 0 -29 62
-132 235 -391 l49 -73 -13 -264 c-12 -243 -12 -267 3 -290 11 -17 92 -63 246
-140 l230 -115 115 -230 c77 -154 123 -235 140 -246 23 -15 47 -15 290 -3
l264 13 213 -142 c160 -107 221 -142 245 -142 23 0 86 36 248 142 l217 141
264 -13 c224 -11 266 -11 284 1 12 8 74 118 139 244 l117 230 230 116 c138 71
236 127 248 142 17 24 18 34 3 288 l-15 263 144 215 c116 175 144 223 144 251
0 28 -27 76 -142 247 l-141 213 13 270 c12 261 12 271 -6 291 -10 12 -121 73
-246 135 l-228 114 -115 230 c-77 154 -123 235 -140 246 -23 15 -47 15 -290 4
l-265 -13 -213 141 c-171 115 -219 142 -247 142 -28 0 -76 -28 -248 -142z
m460 -180 l199 -131 187 7 c103 4 217 9 253 13 l67 6 113 -224 114 -224 224
-114 224 -113 -6 -67 c-4 -36 -9 -150 -13 -253 l-7 -187 131 -201 c73 -111
132 -206 132 -212 0 -5 -59 -100 -132 -210 l-131 -199 7 -187 c4 -103 9 -217
13 -253 l6 -67 -224 -113 -224 -114 -114 -224 -113 -224 -67 6 c-36 4 -150 9
-253 13 l-187 7 -201 -131 c-111 -73 -205 -132 -210 -132 -5 0 -96 57 -201
126 -106 69 -203 130 -215 134 -12 5 -126 2 -259 -6 -131 -8 -241 -11 -244 -8
-3 3 -55 103 -116 222 l-110 217 -224 113 -224 114 6 66 c4 37 9 151 13 254
l7 187 -131 199 c-73 110 -132 205 -132 210 0 6 59 101 132 212 l131 201 -7
187 c-4 103 -9 217 -13 253 l-6 67 224 113 224 114 114 224 113 224 67 -6 c36
-4 152 -9 256 -12 l190 -6 195 130 c107 72 201 130 209 131 7 0 103 -59 213
-132z"/>
<path d="M3900 4998 c-212 -35 -411 -116 -565 -231 -60 -45 -211 -195 -259
-257 -302 -391 -339 -945 -94 -1375 66 -116 93 -151 197 -258 104 -107 168
-157 286 -225 285 -163 609 -203 945 -118 127 32 307 118 415 199 61 46 211
195 259 257 88 114 174 287 212 425 70 253 55 539 -40 790 -29 76 -111 226
-159 290 -46 61 -195 211 -257 259 -118 91 -294 178 -430 212 -164 42 -374 55
-510 32z m385 -178 c367 -71 669 -321 808 -670 55 -138 72 -234 72 -400 0
-166 -17 -262 -72 -400 -218 -547 -826 -823 -1377 -626 -356 127 -624 432
-703 799 -24 112 -24 342 0 454 79 368 347 672 704 799 182 65 377 80 568 44z"/>
<path d="M4503 4099 c-32 -30 -173 -163 -314 -296 -142 -134 -262 -243 -267
-243 -6 0 -74 67 -153 150 -155 163 -185 183 -237 156 -33 -17 -42 -34 -42
-77 0 -26 30 -61 185 -223 101 -106 198 -199 215 -206 16 -7 40 -10 53 -6 22
5 632 572 700 649 50 58 28 132 -45 144 -34 5 -41 1 -95 -48z"/>
</g>
</svg>
