<?xml version="1.0" standalone="no"?>
<!DOCTYPE svg PUBLIC "-//W3C//DTD SVG 20010904//EN"
 "http://www.w3.org/TR/2001/REC-SVG-20010904/DTD/svg10.dtd">
<svg version="1.0" xmlns="http://www.w3.org/2000/svg"
 width="532.000000pt" height="514.000000pt" viewBox="0 0 532.000000 514.000000"
 preserveAspectRatio="xMidYMid meet">

<g transform="translate(0.000000,514.000000) scale(0.100000,-0.100000)"
fill="#000000" stroke="none">
<path d="M3258 4778 c-118 -8 -272 -45 -390 -91 -334 -132 -608 -405 -743
-741 -67 -169 -96 -319 -96 -501 0 -311 97 -589 292 -836 274 -348 731 -544
1167 -499 443 46 814 283 1040 665 220 372 234 871 36 1267 -243 488 -757 777
-1306 736z m347 -153 c565 -117 965 -607 965 -1181 0 -243 -68 -467 -207 -678
-60 -91 -228 -259 -319 -319 -377 -247 -840 -276 -1225 -75 -459 238 -713 722
-646 1228 63 469 384 851 837 995 174 55 414 67 595 30z"/>
<path d="M3240 4509 c-301 -35 -593 -215 -763 -471 -433 -650 -55 -1518 718
-1652 218 -38 455 -1 659 104 373 191 605 592 583 1004 -29 531 -431 956 -960
1015 -107 12 -129 12 -237 0z m60 -174 c0 -53 25 -85 67 -85 43 0 63 26 63 81
l0 49 48 -6 c151 -18 325 -87 444 -176 l56 -42 -29 -34 c-42 -48 -39 -96 8
-121 32 -16 38 -14 79 21 l37 33 39 -45 c80 -91 165 -298 184 -447 l7 -53 -44
0 c-75 0 -115 -64 -69 -110 14 -14 33 -20 66 -20 l46 0 -7 -57 c-19 -151 -74
-291 -165 -422 l-52 -73 -32 31 c-83 80 -175 -12 -95 -95 l31 -32 -73 -52
c-131 -91 -271 -146 -422 -165 l-57 -7 0 46 c0 77 -57 111 -107 64 -17 -16
-23 -32 -23 -66 l0 -44 -52 7 c-98 12 -183 37 -274 80 -85 40 -194 110 -209
136 -4 6 4 23 17 37 33 36 40 59 26 85 -24 47 -72 50 -120 8 l-34 -29 -42 56
c-88 117 -158 295 -176 445 l-6 47 47 0 c55 0 83 21 83 62 0 43 -32 68 -86 68
-44 0 -45 1 -40 28 3 15 8 50 12 77 16 119 100 306 179 400 l33 40 31 -29 c82
-78 173 13 95 95 l-29 31 40 33 c116 98 324 180 493 194 8 1 12 -14 12 -44z"/>
<path d="M3322 3960 c-21 -20 -22 -29 -22 -173 l-1 -152 -43 -26 c-81 -49
-112 -168 -67 -257 41 -81 141 -127 222 -103 l42 13 138 -138 c118 -118 142
-137 169 -137 39 0 63 24 63 63 0 27 -19 51 -137 169 l-137 137 12 46 c22 80
-24 180 -97 215 l-34 17 0 153 c0 140 -2 155 -20 173 -26 26 -60 25 -88 0z
m88 -470 c41 -41 15 -110 -42 -110 -33 0 -68 31 -68 62 0 29 38 68 67 68 13 0
32 -9 43 -20z"/>
<path d="M455 2488 c-11 -6 -23 -16 -27 -22 -4 -6 -8 -356 -8 -777 0 -735 1
-767 19 -783 17 -15 54 -16 412 -14 l394 3 57 29 c32 16 67 39 79 52 13 13 29
24 36 24 7 0 260 -74 561 -164 670 -201 611 -185 705 -196 143 -17 176 -8 942
246 706 235 710 237 751 279 103 107 75 270 -59 339 l-57 29 -688 -57 c-706
-58 -801 -63 -848 -46 l-27 11 41 41 c136 137 116 359 -42 467 -36 25 -171 69
-648 213 l-603 181 -61 57 c-102 94 -98 94 -534 97 -272 2 -380 0 -395 -9z
m495 -798 l0 -670 -200 0 -200 0 0 670 0 670 200 0 200 0 0 -670z m294 647
c22 -12 53 -39 70 -60 l31 -39 3 -534 c2 -510 2 -536 -17 -571 -34 -67 -92
-102 -183 -110 l-58 -6 0 672 0 671 58 0 c40 0 68 -7 96 -23z m791 -312 c286
-85 538 -163 559 -172 60 -27 96 -84 96 -151 0 -70 -28 -122 -83 -153 -68 -37
-108 -31 -324 55 -171 68 -194 75 -217 64 -31 -13 -43 -50 -30 -87 8 -22 48
-41 332 -154 186 -74 350 -134 386 -140 53 -9 167 -2 752 47 379 31 703 56
721 56 20 0 40 -8 53 -22 26 -28 27 -89 1 -112 -22 -20 -1306 -450 -1408 -471
-91 -19 -153 -19 -240 0 -37 8 -308 86 -602 175 -294 88 -536 160 -538 160 -1
0 -3 241 -3 535 0 423 3 533 13 530 6 -2 246 -74 532 -160z"/>
</g>
</svg>
