<?xml version="1.0" standalone="no"?>
<!DOCTYPE svg PUBLIC "-//W3C//DTD SVG 20010904//EN"
 "http://www.w3.org/TR/2001/REC-SVG-20010904/DTD/svg10.dtd">
<svg version="1.0" xmlns="http://www.w3.org/2000/svg"
 width="766.000000pt" height="762.000000pt" viewBox="0 0 766.000000 762.000000"
 preserveAspectRatio="xMidYMid meet">

<g transform="translate(0.000000,762.000000) scale(0.100000,-0.100000)"
fill="#000000" stroke="none">
<path d="M3790 5742 c-19 -9 -69 -42 -110 -73 -41 -30 -129 -88 -195 -129
-143 -88 -165 -106 -165 -137 0 -35 45 -76 75 -69 35 9 132 67 283 170 186
127 189 129 215 122 12 -3 62 -35 111 -71 375 -277 913 -512 1393 -610 129
-27 180 -41 188 -55 3 -4 13 -57 22 -116 14 -88 18 -170 17 -424 0 -275 -3
-333 -23 -460 -39 -254 -107 -503 -188 -693 -39 -92 -41 -119 -11 -147 49 -45
86 -22 131 82 107 251 179 534 219 858 20 160 16 613 -6 775 -30 223 -64 261
-266 300 -492 95 -999 313 -1396 601 -56 41 -114 78 -129 84 -42 16 -127 12
-165 -8z"/>
<path d="M2961 5613 c-15 -13 -26 -45 -41 -118 -68 -336 -129 -393 -493 -465
-33 -7 -67 -20 -78 -31 -24 -24 -25 -71 -1 -91 9 -9 71 -27 137 -41 307 -64
366 -123 430 -428 27 -130 43 -159 89 -159 44 0 56 22 81 139 70 328 128 387
445 451 86 17 109 25 128 47 41 46 14 97 -57 109 -159 26 -313 79 -372 126
-60 49 -108 163 -144 343 -25 125 -67 165 -124 118z m160 -542 c31 -30 81 -65
119 -84 l67 -32 -70 -34 c-90 -42 -158 -110 -201 -200 l-33 -70 -37 74 c-43
88 -119 162 -206 202 l-60 27 72 38 c94 49 151 106 195 196 l36 72 33 -68 c19
-40 55 -90 85 -121z"/>
<path d="M3805 5274 c-36 -19 -45 -31 -45 -66 0 -37 45 -72 80 -62 45 13 64 7
180 -64 148 -89 299 -169 423 -223 81 -35 103 -41 125 -33 35 12 53 48 41 83
-8 21 -45 43 -207 122 -108 53 -258 133 -332 178 -121 73 -140 81 -185 81 -27
0 -63 -7 -80 -16z"/>
<path d="M2045 4868 c-24 -21 -27 -34 -40 -158 -25 -232 -15 -636 21 -849 44
-263 82 -410 160 -621 66 -176 189 -415 247 -477 25 -28 61 -29 87 -3 29 29
25 67 -16 135 -193 319 -314 698 -359 1120 -19 183 -21 506 -4 691 l13 137
-28 23 c-34 30 -48 30 -81 2z"/>
<path d="M4800 4820 c-25 -25 -26 -72 -2 -93 20 -19 124 -57 154 -57 48 0 77
80 40 113 -20 19 -124 57 -154 57 -10 0 -27 -9 -38 -20z"/>
<path d="M5220 4693 c-42 -15 -52 -68 -21 -111 25 -36 31 -142 20 -357 -12
-242 -50 -458 -116 -659 -30 -93 -32 -120 -8 -146 21 -23 77 -27 94 -6 26 32
93 262 126 436 28 149 45 350 45 539 0 209 -11 251 -74 291 -35 21 -41 22 -66
13z"/>
<path d="M2448 4650 c-9 -6 -24 -30 -34 -55 -15 -40 -16 -72 -11 -273 10 -398
77 -718 216 -1029 152 -343 406 -645 721 -857 167 -112 460 -246 538 -246 50
0 129 27 258 89 86 41 104 54 110 77 8 33 -12 73 -42 84 -14 6 -56 -8 -145
-47 -163 -73 -182 -75 -294 -28 -256 105 -470 249 -655 441 -109 113 -165 184
-238 300 -229 367 -336 787 -330 1298 2 218 2 219 -21 237 -26 21 -47 23 -73
9z"/>
<path d="M4585 4401 c-36 -16 -207 -184 -671 -658 -118 -121 -116 -122 -286
57 -143 150 -185 180 -259 180 -67 -1 -116 -29 -200 -116 -78 -81 -99 -121
-99 -189 0 -83 10 -96 312 -406 170 -175 304 -304 325 -314 55 -26 107 -30
158 -11 37 14 117 90 443 419 599 605 628 636 641 682 28 101 9 156 -87 257
-110 116 -184 142 -277 99z m173 -185 c54 -55 62 -69 62 -102 0 -43 5 -38
-635 -681 -307 -310 -364 -363 -389 -363 -32 0 -27 -5 -380 356 -193 198 -206
214 -206 249 0 31 9 46 62 101 93 98 96 97 265 -77 146 -150 187 -178 260
-179 85 0 100 12 476 395 419 426 385 405 485 301z"/>
<path d="M5051 3181 c-11 -11 -24 -45 -31 -78 -41 -209 -80 -311 -142 -370
-50 -48 -149 -89 -286 -118 -68 -14 -132 -30 -143 -35 -24 -14 -34 -55 -21
-85 12 -26 23 -30 199 -69 125 -28 212 -67 260 -118 48 -50 89 -149 118 -286
14 -68 30 -132 35 -143 14 -24 55 -34 85 -21 26 12 30 23 69 199 27 120 67
211 112 257 46 45 137 85 257 112 176 39 187 43 199 69 14 30 3 72 -22 85 -10
6 -63 19 -117 30 -323 66 -380 128 -453 493 -13 66 -38 97 -75 97 -14 0 -34
-9 -44 -19z m164 -536 c37 -38 83 -72 122 -90 l62 -29 -68 -32 c-87 -43 -163
-119 -204 -205 l-32 -66 -32 67 c-42 86 -118 162 -204 203 l-66 32 67 32 c87
42 162 118 203 204 l32 67 30 -61 c18 -37 54 -87 90 -122z"/>
<path d="M2600 2620 c-31 -31 -25 -70 17 -121 21 -24 45 -49 53 -56 38 -31
100 2 100 54 0 28 -69 127 -96 137 -29 11 -54 6 -74 -14z"/>
<path d="M2860 2340 c-46 -46 -22 -81 137 -201 198 -150 432 -275 678 -364
175 -63 216 -66 341 -25 239 79 555 236 674 336 69 59 10 150 -71 109 -16 -9
-60 -35 -97 -59 -157 -100 -354 -193 -545 -256 l-99 -32 -121 42 c-287 100
-505 219 -732 399 -97 76 -130 86 -165 51z"/>
</g>
</svg>
