<?xml version="1.0" standalone="no"?>
<!DOCTYPE svg PUBLIC "-//W3C//DTD SVG 20010904//EN"
 "http://www.w3.org/TR/2001/REC-SVG-20010904/DTD/svg10.dtd">
<svg version="1.0" xmlns="http://www.w3.org/2000/svg"
 width="321.000000pt" height="310.000000pt" viewBox="0 0 321.000000 310.000000"
 preserveAspectRatio="xMidYMid meet">

<g transform="translate(0.000000,310.000000) scale(0.100000,-0.100000)"
fill="#000000" stroke="none">
<path d="M720 2881 c-138 -45 -279 -160 -335 -275 -123 -249 -34 -558 305
-1066 304 -454 866 -959 1303 -1171 262 -126 499 -145 669 -52 117 64 261 235
294 350 21 72 14 138 -23 204 -84 155 -375 356 -607 419 -113 31 -156 24 -281
-50 -94 -55 -145 -80 -165 -80 -49 0 -593 549 -646 652 -13 26 -13 33 4 71 10
23 42 77 70 120 88 135 91 240 13 404 -47 97 -76 141 -185 282 -94 120 -161
175 -243 196 -73 19 -105 18 -173 -4z m179 -125 c40 -21 136 -127 211 -234
121 -172 166 -289 142 -370 -7 -21 -35 -74 -63 -116 -64 -97 -79 -134 -80
-194 -2 -65 22 -108 126 -226 217 -248 444 -472 557 -549 77 -51 168 -32 323
69 55 35 66 39 125 38 80 0 163 -32 306 -116 107 -63 231 -165 272 -223 13
-18 27 -54 29 -78 7 -62 -40 -149 -132 -243 -76 -78 -122 -106 -203 -123 -245
-52 -560 90 -1026 463 -141 112 -441 418 -561 570 -203 258 -411 625 -456 806
-25 98 -22 212 7 294 39 111 226 246 341 246 29 0 66 -6 82 -14z"/>
</g>
</svg>
