<?xml version="1.0" encoding="UTF-8"?>
<svg xmlns="http://www.w3.org/2000/svg" xmlns:xlink="http://www.w3.org/1999/xlink" width="px" height="px" viewBox="0 0 97 97" version="1.1">
<g id="surface1">
<path style=" stroke:none;fill-rule:nonzero;fill:rgb(59.607843%,79.215686%,64.705882%);fill-opacity:1;" d="M 97 35.835938 L 95.0625 30.0625 L 56.234375 42.328125 L 80.367188 10.023438 L 75.304688 6.457031 L 50.609375 39.511719 L 50.609375 0 L 44.363281 0 L 44.363281 38.585938 L 21.179688 7.550781 L 16.128906 11.117188 L 39.445312 42.328125 L 1.925781 30.480469 L 0 36.257812 L 37.730469 48.179688 L 0.210938 60.039062 L 2.148438 65.8125 L 39.871094 53.886719 L 16.6875 84.933594 L 21.738281 88.5 L 44.363281 58.214844 L 44.363281 97 L 50.609375 97 L 50.609375 57.289062 L 74.746094 89.59375 L 79.808594 86.015625 L 55.808594 53.886719 L 94.847656 66.230469 L 96.789062 60.457031 L 57.945312 48.179688 Z M 97 35.835938 "/>
</g>
</svg>
