<?xml version="1.0" encoding="UTF-8"?>
<svg xmlns="http://www.w3.org/2000/svg" xmlns:xlink="http://www.w3.org/1999/xlink" width="px" height="px" viewBox="0 0 254 273" version="1.1">
<defs>
<clipPath id="clip1">
  <path d="M 0 0 L 248 0 L 248 227 L 0 227 Z M 0 0 "/>
</clipPath>
<clipPath id="clip2">
  <path d="M 193.109375 0 L 253.539062 217.527344 L 54.4375 272.644531 L -5.992188 55.117188 Z M 193.109375 0 "/>
</clipPath>
<clipPath id="clip3">
  <path d="M 0 5 L 234 5 L 234 216 L 0 216 Z M 0 5 "/>
</clipPath>
<clipPath id="clip4">
  <path d="M 193.109375 0 L 253.539062 217.527344 L 54.4375 272.644531 L -5.992188 55.117188 Z M 193.109375 0 "/>
</clipPath>
<clipPath id="clip5">
  <path d="M 17 17 L 221 17 L 221 204 L 17 204 Z M 17 17 "/>
</clipPath>
<clipPath id="clip6">
  <path d="M 193.109375 0 L 253.539062 217.527344 L 54.4375 272.644531 L -5.992188 55.117188 Z M 193.109375 0 "/>
</clipPath>
<clipPath id="clip7">
  <path d="M 35 27 L 208 27 L 208 191 L 35 191 Z M 35 27 "/>
</clipPath>
<clipPath id="clip8">
  <path d="M 193.109375 0 L 253.539062 217.527344 L 54.4375 272.644531 L -5.992188 55.117188 Z M 193.109375 0 "/>
</clipPath>
<clipPath id="clip9">
  <path d="M 51 38 L 197 38 L 197 178 L 51 178 Z M 51 38 "/>
</clipPath>
<clipPath id="clip10">
  <path d="M 193.109375 0 L 253.539062 217.527344 L 54.4375 272.644531 L -5.992188 55.117188 Z M 193.109375 0 "/>
</clipPath>
<clipPath id="clip11">
  <path d="M 67 48 L 186 48 L 186 165 L 67 165 Z M 67 48 "/>
</clipPath>
<clipPath id="clip12">
  <path d="M 193.109375 0 L 253.539062 217.527344 L 54.4375 272.644531 L -5.992188 55.117188 Z M 193.109375 0 "/>
</clipPath>
<clipPath id="clip13">
  <path d="M 81 58 L 176 58 L 176 152 L 81 152 Z M 81 58 "/>
</clipPath>
<clipPath id="clip14">
  <path d="M 193.109375 0 L 253.539062 217.527344 L 54.4375 272.644531 L -5.992188 55.117188 Z M 193.109375 0 "/>
</clipPath>
<clipPath id="clip15">
  <path d="M 95 68 L 166 68 L 166 140 L 95 140 Z M 95 68 "/>
</clipPath>
<clipPath id="clip16">
  <path d="M 193.109375 0 L 253.539062 217.527344 L 54.4375 272.644531 L -5.992188 55.117188 Z M 193.109375 0 "/>
</clipPath>
</defs>
<g id="surface1">
<g clip-path="url(#clip1)" clip-rule="nonzero">
<g clip-path="url(#clip2)" clip-rule="nonzero">
<path style="fill:none;stroke-width:2;stroke-linecap:butt;stroke-linejoin:miter;stroke:rgb(0.392157%,2.745098%,12.156863%);stroke-opacity:1;stroke-miterlimit:10;" d="M 229.699819 27.800123 C 244.865773 35.456516 256.778528 45.322087 260.005659 53.934223 C 263.86362 62.859718 259.041169 70.516111 255.125861 81.024067 C 251.153205 91.495464 248.07205 104.792311 253.874631 124.220539 C 258.916046 143.251846 272.835984 168.419757 285.452556 193.817465 C 298.084769 219.230841 305.852824 241.286058 299.779143 254.718693 C 294.456201 268.532581 275.296737 273.713442 251.455586 274.157366 C 227.692637 274.637849 199.237574 270.376173 176.845765 266.051826 C 153.833554 261.41412 136.868956 256.713742 121.729069 249.073017 C 106.583969 241.432292 92.648391 230.543083 75.084246 214.697588 C 58.145715 199.170673 37.578617 178.703139 23.580478 159.165236 C 9.514564 139.590774 2.001969 120.940719 9.603193 108.286258 C 16.458892 95.250544 38.433625 88.199977 65.960691 83.060897 C 93.487758 77.916595 121.619587 73.963055 139.564315 66.536458 C 158.270208 59.480669 166.799428 48.941378 172.596795 39.383943 C 178.467151 29.857844 181.569159 21.32927 190.906465 19.062643 C 199.612943 16.482658 214.533864 20.154175 229.699819 27.800123 Z M 229.699819 27.800123 " transform="matrix(0.749263,0,0,0.747945,0,0)"/>
</g>
</g>
<g clip-path="url(#clip3)" clip-rule="nonzero">
<g clip-path="url(#clip4)" clip-rule="nonzero">
<path style="fill:none;stroke-width:2;stroke-linecap:butt;stroke-linejoin:miter;stroke:rgb(0.392157%,2.745098%,12.156863%);stroke-opacity:1;stroke-miterlimit:10;" d="M 223.16214 41.1962 C 232.984298 46.152487 240.434332 53.302284 243.014994 60.72888 C 245.944959 68.333047 243.995125 76.234904 243.09841 86.74286 C 242.13392 97.224702 242.217335 110.317866 247.727962 127.604811 C 252.764164 144.646291 263.238004 165.871108 272.179088 187.111593 C 281.114958 208.3573 286.192867 226.866343 281.464259 238.967205 C 277.210076 251.31353 263.144162 257.28301 244.730223 258.954255 C 226.378845 260.656837 203.658588 258.066406 183.508566 254.034527 C 163.009243 249.819855 145.085368 244.163733 128.266748 235.682163 C 111.458554 227.19537 96.17269 216.092033 80.480177 202.048349 C 65.131751 188.166567 49.345396 171.328769 39.575372 155.431047 C 29.742787 139.512434 25.916108 124.518229 33.01684 113.602908 C 39.648361 102.447344 57.207293 95.375887 79.2498 89.761547 C 101.287094 84.147207 124.252384 79.791524 140.633074 73.571357 C 157.493402 67.575764 167.774345 59.710465 175.401636 52.592004 C 183.091489 45.510102 188.106837 39.169815 195.843612 36.944969 C 203.231084 34.542554 213.329555 36.245135 223.151713 41.201422 Z M 223.16214 41.1962 " transform="matrix(0.749263,0,0,0.747945,0,0)"/>
</g>
</g>
<g clip-path="url(#clip5)" clip-rule="nonzero">
<g clip-path="url(#clip6)" clip-rule="nonzero">
<path style="fill:none;stroke-width:2;stroke-linecap:butt;stroke-linejoin:miter;stroke:rgb(0.392157%,2.745098%,12.156863%);stroke-opacity:1;stroke-miterlimit:10;" d="M 216.634889 54.587054 C 230.966689 61.820413 233.171983 74.636776 233.828879 93.871766 C 234.657819 103.747782 236.383474 115.879979 241.112082 130.764509 C 245.564376 145.51325 253.040477 163.035213 258.884766 180.410943 C 264.734267 197.791896 267.549536 212.958448 263.582093 223.466403 C 259.890963 234.104925 249.42755 240.079627 235.330355 242.424594 C 205.785679 246.425137 166.397992 238.241257 134.783572 222.291309 C 103.169153 206.34136 72.962368 179.392528 58.322973 153.096526 C 51.508981 140.201823 49.866742 128.111407 55.971703 118.694983 C 61.800351 109.132326 75.381413 102.238439 92.533695 96.467419 C 109.680764 90.691177 127.912232 86.147479 142.160618 80.836052 C 156.685316 75.665636 167.216505 69.711825 175.57368 64.478737 C 190.937746 53.317952 202.297875 47.353694 216.634889 54.587054 Z M 216.634889 54.587054 " transform="matrix(0.749263,0,0,0.747945,0,0)"/>
</g>
</g>
<g clip-path="url(#clip7)" clip-rule="nonzero">
<g clip-path="url(#clip8)" clip-rule="nonzero">
<path style="fill:none;stroke-width:2;stroke-linecap:butt;stroke-linejoin:miter;stroke:rgb(0.392157%,2.745098%,12.156863%);stroke-opacity:1;stroke-miterlimit:10;" d="M 210.102424 67.972685 C 221.373923 73.665365 221.92655 83.765954 226.118172 101.768401 C 229.62683 119.436599 236.774483 144.990986 245.621724 173.705071 C 254.463752 202.413934 245.965813 220.076909 224.173551 224.98097 C 203.069467 230.219279 168.660633 222.693452 141.331678 208.895232 C 114.002722 195.107458 87.304595 171.804029 78.634612 151.534956 C 69.286879 130.931633 77.977716 113.357443 105.812377 103.157624 C 133.652251 92.957804 157.988681 83.285471 173.947081 75.446285 C 190.578017 67.946572 198.820497 62.280005 210.102424 67.972685 Z M 210.102424 67.972685 " transform="matrix(0.749263,0,0,0.747945,0,0)"/>
</g>
</g>
<g clip-path="url(#clip9)" clip-rule="nonzero">
<g clip-path="url(#clip10)" clip-rule="nonzero">
<path style="fill:none;stroke-width:2;stroke-linecap:butt;stroke-linejoin:miter;stroke:rgb(0.392157%,2.745098%,12.156863%);stroke-opacity:1;stroke-miterlimit:10;" d="M 203.564745 81.363539 C 212.020977 85.630437 214.455663 94.822287 218.798474 109.879164 C 222.651221 124.701022 228.406881 145.382684 232.327402 167.004421 C 236.258351 188.631382 229.324449 202.92053 212.693513 207.385889 C 196.537002 212.107157 170.678242 207.015081 147.858929 195.504378 C 125.04483 183.988453 105.416154 166.116572 99.342474 150.177069 C 92.794368 134.002547 99.785618 119.744734 119.096272 109.853051 C 138.401713 99.956144 158.07731 92.101291 172.018101 86.262377 C 186.433317 80.668927 195.113727 77.086195 203.559532 81.353094 Z M 203.564745 81.363539 " transform="matrix(0.749263,0,0,0.747945,0,0)"/>
</g>
</g>
<g clip-path="url(#clip11)" clip-rule="nonzero">
<g clip-path="url(#clip12)" clip-rule="nonzero">
<path style="fill:none;stroke-width:2;stroke-linecap:butt;stroke-linejoin:miter;stroke:rgb(0.392157%,2.745098%,12.156863%);stroke-opacity:1;stroke-miterlimit:10;" d="M 197.03228 94.74917 C 203.908834 98.217004 207.313223 106.030077 211.066914 117.775798 C 214.523438 129.370064 218.318836 144.902201 219.04872 160.298549 C 219.783818 175.70012 213.882182 186.333419 201.651406 190.015382 C 189.717797 193.843578 171.465474 190.730884 154.401821 182.118747 C 137.338167 173.506611 123.850947 160.606685 119.638472 148.631167 C 115.118402 136.493747 119.878291 125.285958 132.385381 116.569368 C 144.887257 107.837111 159.344181 101.522937 170.511411 97.308265 C 181.986236 93.245049 190.166154 91.276113 197.03228 94.74917 Z M 197.03228 94.74917 " transform="matrix(0.749263,0,0,0.747945,0,0)"/>
</g>
</g>
<g clip-path="url(#clip13)" clip-rule="nonzero">
<g clip-path="url(#clip14)" clip-rule="nonzero">
<path style="fill:none;stroke-width:2;stroke-linecap:butt;stroke-linejoin:miter;stroke:rgb(0.392157%,2.745098%,12.156863%);stroke-opacity:1;stroke-miterlimit:10;" d="M 190.494602 108.140024 C 200.613927 113.242545 206.744956 133.250486 205.759612 153.603122 C 204.774268 173.971426 184.003845 180.38483 160.923859 168.738338 C 137.843873 157.091847 130.30521 136.384072 145.658849 123.27524 C 161.012488 110.161186 180.38049 103.037503 190.494602 108.140024 Z M 190.494602 108.140024 " transform="matrix(0.749263,0,0,0.747945,0,0)"/>
</g>
</g>
<g clip-path="url(#clip15)" clip-rule="nonzero">
<g clip-path="url(#clip16)" clip-rule="nonzero">
<path style="fill:none;stroke-width:2;stroke-linecap:butt;stroke-linejoin:miter;stroke:rgb(0.392157%,2.745098%,12.156863%);stroke-opacity:1;stroke-miterlimit:10;" d="M 183.962137 121.520433 C 191.078509 125.11361 194.826987 136.441521 192.486144 146.89725 C 190.1453 157.352979 178.8738 161.102836 167.461537 155.342262 C 156.049274 149.581688 152.160033 138.185883 158.937531 129.965445 C 165.720242 121.745006 176.856192 117.932478 183.962137 121.520433 Z M 183.962137 121.520433 " transform="matrix(0.749263,0,0,0.747945,0,0)"/>
</g>
</g>
</g>
</svg>
