<?xml version="1.0" encoding="UTF-8"?>
<svg xmlns="http://www.w3.org/2000/svg" xmlns:xlink="http://www.w3.org/1999/xlink" width="px" height="px" viewBox="0 0 284 312" version="1.1">
<g id="surface1">
<path style="fill:none;stroke-width:2;stroke-linecap:butt;stroke-linejoin:miter;stroke:rgb(32.156863%,36.470588%,96.862745%);stroke-opacity:1;stroke-miterlimit:10;" d="M 32.664145 276.073505 C 26.737057 256.09852 25.360847 237.225135 29.995131 227.216759 C 34.384408 216.39393 44.799818 214.420448 56.872937 209.309232 C 68.966907 204.27633 82.729011 196.090032 94.405947 174.862042 C 106.374807 154.636456 116.268926 121.353516 127.434997 89.036433 C 138.60628 56.719351 150.898341 31.528733 167.199136 25.952862 C 183.208008 19.369366 203.246465 32.384953 223.081619 53.513747 C 242.89592 74.543344 262.522557 103.712252 277.144793 127.451472 C 292.012035 152.020808 301.890515 171.186561 307.801964 191.140663 C 313.697775 211.089543 315.881987 232.620343 316.825525 261.517766 C 317.539695 289.574632 317.018403 324.98768 311.941021 353.707595 C 306.884491 382.511043 297.261444 404.647461 280.35595 408.213304 C 263.747593 412.78155 239.856789 398.76878 213.0259 378.177734 C 186.200223 357.59191 159.906264 335.497258 138.98161 325.421011 C 117.744182 314.358023 101.86042 315.355206 89.062706 318.017841 C 76.228502 320.576059 66.490771 324.80495 56.956344 318.263221 C 47.66171 312.541166 38.591233 296.04849 32.664145 276.073505 Z M 32.664145 276.073505 " transform="matrix(0.74934,0,0,0.748201,0,0)"/>
<path style="fill:none;stroke-width:2;stroke-linecap:butt;stroke-linejoin:miter;stroke:rgb(32.156863%,36.470588%,96.862745%);stroke-opacity:1;stroke-miterlimit:10;" d="M 49.314206 270.930965 C 45.487924 257.99369 45.441007 245.380108 49.616555 236.932767 C 53.661779 228.01555 61.903403 223.275015 71.52645 215.422852 C 81.165135 207.654222 92.164393 196.810509 102.272241 177.592548 C 112.552115 159.016752 121.95622 132.082369 132.611424 106.51585 C 143.266629 80.954552 154.750688 61.136193 168.856844 55.4298 C 182.76491 49.091684 199.284647 56.855093 215.736617 72.094764 C 232.162522 87.230018 248.525872 109.857197 261.552954 131.341008 C 274.736424 153.294697 284.58884 174.120681 291.141478 196.26232 C 297.688903 218.403959 300.785376 241.323505 301.734127 267.057091 C 302.547343 292.326022 301.186771 320.429875 295.739272 342.331355 C 290.307411 364.311148 280.762558 380.114671 265.733715 382.688552 C 250.89775 385.894156 230.572582 375.901442 207.844259 360.65655 C 185.100297 345.411659 162.695175 328.29248 144.048567 318.654785 C 125.224719 308.390587 110.164599 305.59221 97.92988 304.584585 C 85.658671 303.488206 76.20765 304.193021 68.018156 299.04526 C 59.964197 294.372596 53.1457 283.852577 49.314206 270.915302 Z M 49.314206 270.930965 " transform="matrix(0.74934,0,0,0.748201,0,0)"/>
<path style="fill:none;stroke-width:2;stroke-linecap:butt;stroke-linejoin:miter;stroke:rgb(32.156863%,36.470588%,96.862745%);stroke-opacity:1;stroke-miterlimit:10;" d="M 65.943414 265.783203 C 60.360379 246.915039 69.378727 234.358887 85.106101 217.902757 C 92.769091 209.022085 101.615413 197.473558 110.336625 180.933894 C 119.167309 164.759691 127.867669 143.610014 137.782639 124.016151 C 147.697609 104.422288 158.206852 89.38101 170.326887 84.316782 C 182.332238 78.871432 195.932741 83.377028 209.423773 94.168532 C 236.927129 117.516188 262.178505 159.773776 274.507056 201.410081 C 286.835607 243.041166 288.727897 292.487868 278.453235 327.352727 C 273.12042 344.127329 264.248033 355.560998 251.293932 357.811185 C 238.470153 360.426833 221.543808 353.86422 202.673044 343.161471 C 183.786642 332.453501 165.056627 319.761606 148.94871 311.288161 C 132.715683 302.449256 119.099541 297.865347 107.84485 294.628418 C 85.877613 289.966196 71.552514 284.640925 65.969479 265.751878 Z M 65.943414 265.783203 " transform="matrix(0.74934,0,0,0.748201,0,0)"/>
<path style="fill:none;stroke-width:2;stroke-linecap:butt;stroke-linejoin:miter;stroke:rgb(32.156863%,36.470588%,96.862745%);stroke-opacity:1;stroke-miterlimit:10;" d="M 82.593475 260.640663 C 78.198985 245.792556 86.279008 236.969313 98.086268 218.356971 C 110.14896 200.642616 125.918038 173.128718 142.953854 141.516451 C 159.98967 109.87808 181.868288 103.007437 203.783396 118.602126 C 225.453496 133.324932 247.170513 170.533954 257.820505 206.54218 C 268.470497 242.545185 270.597367 285.810397 260.536435 310.332745 C 250.757001 335.747859 228.80019 342.378343 197.460126 325.687275 C 166.120062 309.001427 138.064137 295.014761 118.421861 287.089506 C 98.498088 278.281926 86.987965 275.509653 82.588262 260.661546 Z M 82.593475 260.640663 " transform="matrix(0.74934,0,0,0.748201,0,0)"/>
<path style="fill:none;stroke-width:2;stroke-linecap:butt;stroke-linejoin:miter;stroke:rgb(32.156863%,36.470588%,96.862745%);stroke-opacity:1;stroke-miterlimit:10;" d="M 99.238323 255.519005 C 95.948971 244.388146 101.714459 234.599046 110.910046 218.283879 C 120.272447 202.605657 133.059735 180.380484 148.140708 159.016752 C 163.200828 137.65302 180.929963 132.124136 198.28898 143.453388 C 215.460332 154.135254 232.287632 181.64393 241.186083 211.705604 C 250.084535 241.762057 251.007221 274.178335 242.494526 292.785457 C 234.179921 312.019081 216.414296 317.464431 192.283698 308.207858 C 168.158313 298.951285 145.450842 287.679462 129.134408 279.926495 C 112.635522 271.531363 102.527674 266.665527 99.217471 255.534668 Z M 99.238323 255.519005 " transform="matrix(0.74934,0,0,0.748201,0,0)"/>
</g>
</svg>
