<svg width="130" height="129" viewBox="0 0 130 129" fill="none" xmlns="http://www.w3.org/2000/svg">
<g clip-path="url(#clip0_2_104)">
<path d="M130 47.6592L127.403 39.9803L75.3643 56.2925L107.71 13.3317L100.926 8.58923L67.8294 52.5485V0H59.4539V51.3152L28.3836 10.0428L21.6141 14.7852L52.8646 56.2925L2.58169 40.5382L0 48.2172L50.5681 64.0742L0.285186 79.8432L2.88188 87.5221L53.4349 71.665L22.3646 112.952L29.1341 117.695L59.4539 77.4206V129H67.8294V76.1872L100.175 119.148L106.96 114.391L74.7939 71.665L127.118 88.08L129.715 80.4011L77.6608 64.0742L130 47.6592Z" fill="#98CAA5"/>
</g>
<defs>
<clipPath id="clip0_2_104">
<rect width="130" height="129" fill="white"/>
</clipPath>
</defs>
</svg>
