<svg width="339" height="365" viewBox="0 0 339 365" fill="none" xmlns="http://www.w3.org/2000/svg">
<g clip-path="url(#clip0_2_152)">
<path d="M229.701 27.8018C244.868 35.4569 256.778 45.323 260.007 53.9334C263.862 62.8577 259.042 70.514 255.128 81.0222C251.153 91.4956 248.074 104.792 253.876 124.218C258.917 143.253 272.838 168.418 285.455 193.82C298.085 219.229 305.852 241.286 299.78 254.717C294.458 268.531 275.296 273.711 251.458 274.157C227.691 274.636 199.238 270.375 176.848 266.051C153.832 261.413 136.869 256.715 121.727 249.074C106.584 241.433 92.6462 230.542 75.0837 214.699C58.1478 199.17 37.58 178.702 23.5792 159.163C9.51684 139.589 1.99962 120.94 9.60496 108.287C16.4605 95.2509 38.436 88.2019 65.9626 83.0586C93.4893 77.9154 121.617 73.965 139.565 66.5385C158.27 59.4832 166.802 48.9395 172.599 39.3828C178.467 29.8582 181.571 21.3286 190.904 19.0619C199.611 16.4812 214.536 20.1563 229.701 27.8018Z" stroke="#01071F" stroke-width="2" stroke-miterlimit="10"/>
<path d="M223.163 41.1962C232.984 46.1517 240.436 53.3004 243.015 60.7313C245.944 68.3352 243.994 76.2337 243.1 86.7447C242.135 97.2237 242.218 110.318 247.728 127.604C252.766 144.648 263.238 165.871 272.18 187.114C281.113 208.359 286.193 226.865 281.465 238.968C277.21 251.315 263.143 257.281 244.73 258.952C226.378 260.659 203.659 258.066 183.509 254.034C163.007 249.82 145.084 244.164 128.265 235.68C111.456 227.193 96.1735 216.094 80.4789 202.047C65.1305 188.164 49.3477 171.329 39.5741 155.433C29.7417 139.511 25.9159 124.519 33.0173 113.604C39.6467 102.446 57.2061 95.3767 79.2473 89.7623C101.289 84.1478 124.25 79.7933 140.632 73.5689C157.494 67.5748 167.776 59.711 175.402 52.5943C183.089 45.5125 188.107 39.1709 195.842 36.9426C203.229 34.5411 213.332 36.2433 223.153 41.1989L223.163 41.1962Z" stroke="#01071F" stroke-width="2" stroke-miterlimit="10"/>
<path d="M216.634 54.588C230.968 61.8204 233.173 74.6372 233.828 93.8719C234.657 103.749 236.382 115.88 241.112 130.767C245.565 145.513 253.039 163.033 258.886 180.413C264.733 197.792 267.549 212.961 263.582 223.464C259.892 234.107 249.427 240.081 235.331 242.423C205.785 246.424 166.397 238.243 134.784 222.291C103.171 206.339 72.9611 179.392 58.3219 153.098C51.5072 140.2 49.8663 128.109 55.9726 118.694C61.7984 109.13 75.381 102.239 92.5319 96.4659C109.683 90.6926 127.911 86.146 142.16 80.835C156.686 75.6649 167.219 69.7137 175.574 64.4805C190.94 53.3182 202.3 47.3555 216.634 54.588Z" stroke="#01071F" stroke-width="2" stroke-miterlimit="10"/>
<path d="M210.103 67.9701C221.375 73.6649 221.924 83.7655 226.118 101.77C229.626 119.434 236.776 144.993 245.621 173.704C254.465 202.415 245.966 220.078 224.174 224.98C203.067 230.221 168.663 222.692 141.332 208.894C114.003 195.105 87.3047 171.803 78.6325 151.533C69.287 130.931 77.9773 113.36 105.814 103.16C133.65 92.96 157.99 83.2836 173.945 75.4446C190.577 67.9474 198.821 62.2779 210.103 67.9701Z" stroke="#01071F" stroke-width="2" stroke-miterlimit="10"/>
<path d="M203.564 81.3646C212.022 85.6295 214.457 94.8231 218.799 109.88C222.65 124.7 228.406 145.384 232.326 167.003C236.259 188.629 229.326 202.921 212.695 207.388C196.538 212.107 170.676 207.013 147.86 195.502C125.044 183.991 105.414 166.117 99.3439 150.179C92.7923 134.001 99.7865 119.744 119.096 109.854C138.402 99.9544 158.079 92.1004 172.016 86.2636C186.435 80.6668 195.114 77.0873 203.562 81.3549L203.564 81.3646Z" stroke="#01071F" stroke-width="2" stroke-miterlimit="10"/>
<path d="M197.033 94.7466C203.91 98.215 207.312 106.03 211.067 117.774C214.522 129.372 218.321 144.902 219.051 160.297C219.785 175.701 213.882 186.335 201.651 190.017C189.72 193.845 171.464 190.731 154.401 182.117C137.339 173.504 123.852 160.609 119.638 148.629C115.121 136.495 119.878 125.286 132.383 116.567C144.885 107.839 159.344 101.525 170.513 97.307C181.984 93.2436 190.166 91.2756 197.033 94.7466Z" stroke="#01071F" stroke-width="2" stroke-miterlimit="10"/>
<path d="M190.495 108.141C200.616 113.242 206.746 133.251 205.76 153.605C204.776 173.969 184.005 180.383 160.923 168.738C137.842 157.092 130.303 136.384 145.658 123.274C161.013 110.163 180.383 103.038 190.495 108.141Z" stroke="#01071F" stroke-width="2" stroke-miterlimit="10"/>
<path d="M183.964 121.523C191.081 125.112 194.826 136.443 192.485 146.899C190.144 157.355 178.876 161.102 167.461 155.343C156.047 149.584 152.16 138.188 158.94 129.968C165.72 121.747 176.855 117.932 183.964 121.523Z" stroke="#01071F" stroke-width="2" stroke-miterlimit="10"/>
</g>
<defs>
<clipPath id="clip0_2_152">
<rect width="301.81" height="275.76" fill="white" transform="translate(257.731) rotate(74.5)"/>
</clipPath>
</defs>
</svg>
