<svg width="379" height="417" viewBox="0 0 379 417" fill="none" xmlns="http://www.w3.org/2000/svg">
<path d="M32.6623 276.073C26.7347 256.096 25.3625 237.227 29.9955 227.215C34.3838 216.396 44.7992 214.42 56.8746 209.308C68.9692 204.275 82.7279 196.089 94.4057 174.86C106.376 154.635 116.269 121.351 127.437 89.0341C138.604 56.7176 150.896 31.5311 167.198 25.9531C183.207 19.3716 203.247 32.385 223.08 53.5126C242.898 74.5431 262.523 103.71 277.147 127.454C292.011 152.021 301.888 171.187 307.802 191.141C313.699 211.092 315.88 232.618 316.827 261.517C317.538 289.574 317.02 324.986 311.942 353.71C306.883 382.513 297.262 404.647 280.358 408.214C263.746 412.784 239.856 398.769 213.028 378.18C186.2 357.59 159.907 335.495 138.982 325.423C117.743 314.36 101.863 315.356 89.0615 318.016C76.2275 320.576 66.4901 324.805 56.9559 318.261C47.6624 312.54 38.5899 296.049 32.6623 276.073Z" stroke="#525DF7" stroke-width="2" stroke-miterlimit="10"/>
<path d="M49.3124 270.931C45.4855 257.992 45.4388 245.382 49.6177 236.931C53.66 228.017 61.9059 223.275 71.5248 215.424C81.1628 207.653 92.1656 196.808 102.274 177.594C112.552 159.019 121.954 132.08 132.611 106.516C143.268 80.9521 154.75 61.1386 168.855 55.4279C182.766 49.0923 199.283 56.8554 215.739 72.0928C232.163 87.2291 248.524 109.857 261.554 131.343C274.738 153.294 284.588 174.12 291.139 196.262C297.69 218.404 300.786 241.321 301.734 267.056C302.545 292.328 301.186 320.432 295.737 342.331C290.307 364.309 280.761 380.114 265.733 382.691C250.897 385.893 230.571 375.903 207.844 360.659C185.1 345.411 162.693 328.295 144.046 318.655C125.223 308.393 110.164 305.591 97.9291 304.582C85.6574 303.49 76.2101 304.192 68.0197 299.043C59.962 294.375 53.1434 283.853 49.3165 270.913L49.3124 270.931Z" stroke="#525DF7" stroke-width="2" stroke-miterlimit="10"/>
<path d="M65.9447 265.785C60.3602 246.917 69.3807 234.361 85.1048 217.904C92.7715 209.022 101.616 197.473 110.338 180.935C119.165 164.758 127.866 143.61 137.782 124.015C147.697 104.42 158.208 89.3805 170.329 84.3163C182.332 78.8692 195.931 83.3753 209.426 94.1664C236.928 117.514 262.179 159.773 274.507 201.408C286.835 243.042 288.729 292.489 278.453 327.352C273.119 344.129 264.247 355.559 251.296 357.811C238.468 360.428 221.544 353.863 202.674 343.16C183.786 332.453 165.057 319.761 148.948 311.287C132.717 302.448 119.099 297.863 107.846 294.628C85.8774 289.968 71.5512 284.639 65.9707 265.754L65.9447 265.785Z" stroke="#525DF7" stroke-width="2" stroke-miterlimit="10"/>
<path d="M82.5947 260.643C78.1979 245.794 86.2815 236.971 98.0862 218.355C110.15 200.642 125.918 173.131 142.952 141.514C159.99 109.879 181.87 103.005 203.784 118.604C225.453 133.323 247.17 170.535 257.821 206.541C268.472 242.547 270.595 285.813 260.535 310.335C250.756 335.746 228.801 342.378 197.459 325.688C166.118 308.999 138.065 295.015 118.422 287.092C98.4975 278.28 86.9875 275.51 82.5906 260.661L82.5947 260.643Z" stroke="#525DF7" stroke-width="2" stroke-miterlimit="10"/>
<path d="M99.2408 255.519C95.951 244.389 101.712 234.599 110.908 218.282C120.274 202.604 133.062 180.378 148.14 159.017C163.201 137.652 180.932 132.123 198.291 143.451C215.462 154.136 232.287 181.645 241.185 211.705C250.082 241.764 251.005 274.176 242.496 292.786C234.181 312.02 216.412 317.465 192.285 308.207C168.158 298.949 145.45 287.678 129.137 279.925C112.636 271.529 102.526 266.668 99.2189 255.533L99.2408 255.519Z" stroke="#525DF7" stroke-width="2" stroke-miterlimit="10"/>
</svg>
